<?xml version="1.0" encoding="UTF-8"?>
<svg width="1200pt" height="1200pt" version="1.1" viewBox="0 0 1200 1200" xmlns="http://www.w3.org/2000/svg">
 <g fill="#0b3d77">
  <path d="m600 728.4-12-6-314.4-180v219.6c206.4 122.4 446.4 122.4 651.6 0v-219.6l-313.2 180z"/>
  <path d="m1083.6 914.4c0-19.199-12-36-28.801-43.199v-452.4l86.398-49.199-541.2-309.6-540 309.6 540 309.6 417.6-238.8v432c-16.801 7.1992-28.801 24-28.801 43.199 0 18 10.801 34.801 26.398 42l-31.199 171.6h103.2l-31.199-172.8c16.801-7.1992 27.602-24 27.602-42z"/>
 </g>
</svg>
